<svg baseProfile="tiny" xmlns="http://www.w3.org/2000/svg" viewBox="0 0 72 72"><path fill="#EA4C89" d="M72 64c0 4.418-3.582 8-8 8h-56c-4.418 0-8-3.582-8-8v-56c0-4.418 3.582-8 8-8h56c4.418 0 8 3.582 8 8v56z"/><path fill="#fff" d="M36.001 15c-11.58 0-21.001 9.421-21.001 21 0 11.578 9.421 21 21.001 21 11.58 0 20.999-9.421 20.999-21s-9.419-21-20.999-21zm0 3.09c4.558 0 8.722 1.71 11.89 4.52-.323.46-3.022 4.089-9.401 6.48-2.939-5.401-6.197-9.837-6.692-10.5 1.348-.326 2.757-.5 4.203-.5zm-7.626 1.705c.473.649 3.678 5.091 6.65 10.374-8.39 2.228-15.78 2.196-16.583 2.185 1.163-5.566 4.915-10.192 9.933-12.559zm-10.313 16.234l.009-.549c.786.017 9.478.129 18.435-2.552.513 1.005 1.004 2.026 1.453 3.044l-.705.213c-9.252 2.99-14.174 11.141-14.581 11.837-2.863-3.181-4.611-7.387-4.611-11.993zm17.939 17.936c-4.147 0-7.969-1.415-11.01-3.786.323-.66 3.955-7.676 14.072-11.201l.119-.041c2.517 6.544 3.559 12.029 3.825 13.603-2.153.917-4.521 1.425-7.006 1.425zm10.022-3.068c-.184-1.091-1.14-6.342-3.486-12.789 5.623-.9 10.56.573 11.174.766-.799 4.991-3.665 9.302-7.688 12.023zm-4.578-15.617l-.387-.925c-.372-.875-.772-1.744-1.19-2.598 6.633-2.707 9.638-6.561 10.016-7.073 2.498 3.052 4.012 6.939 4.05 11.173-.591-.124-6.52-1.327-12.489-.577z"/></svg>