<svg xmlns="http://www.w3.org/2000/svg" viewBox="0 0 30 34" enable-background="new 0 0 30 34"><path d="M30 22.499c0 1.1-.749 2.5-1.665 3.111l-11.67 7.78c-.916.61-2.414.61-3.33 0l-11.67-7.78c-.916-.611-1.665-2.01-1.665-3.111v-10.998c0-1.1.749-2.5 1.665-3.111l11.67-7.78c.916-.61 2.414-.61 3.33 0l11.67 7.78c.916.611 1.665 2.01 1.665 3.111v10.998z" fill="#56A4CA"/><g><path d="M3.595 22.793c.094.13.245.207.405.207h22c.16 0 .311-.077.405-.207.094-.129.12-.296.07-.449l-6.342-19.422-1.345-.896 6.523 19.974h-20.622l6.522-19.974-1.344.896-6.342 19.423c-.05.152-.024.319.07.448z" fill="#fff"/><path d="M15 26.5c-.115 0-11.5-.029-11.5-2.5s11.385-2.5 11.5-2.5 11.5.029 11.5 2.5-11.385 2.5-11.5 2.5z" fill="#56A4CA"/><path d="M15 22c5.747 0 11 .895 11 2s-5.253 2-11 2-11-.895-11-2 5.253-2 11-2m0-1c-2.815 0-12 .216-12 3s9.185 3 12 3 12-.216 12-3-9.185-3-12-3zM9.5 10.5h11v14h-11z" fill="#fff"/><path d="M20 11v13h-10v-13h10m1-1h-12v15h12v-15zM11 12h8v3h-8z" fill="#56A4CA"/><path stroke="#56A4CA" stroke-miterlimit="10" fill="none" d="M11 16.5h7M11 18.5h8M11 20.5h5"/></g><path d="M15 1.152c.429 0 .834.106 1.11.29l11.67 7.78c.639.426 1.22 1.512 1.22 2.279v10.998c0 .767-.581 1.853-1.219 2.279l-11.67 7.78c-.276.184-.681.29-1.11.29s-.834-.106-1.11-.29l-11.67-7.78c-.64-.426-1.221-1.512-1.221-2.279v-10.998c0-.767.581-1.853 1.219-2.279l11.67-7.78c.277-.184.682-.29 1.111-.29m0-1c-.603 0-1.207.153-1.665.458l-11.67 7.78c-.916.611-1.665 2.01-1.665 3.111v10.998c0 1.1.749 2.5 1.665 3.111l11.67 7.78c.458.305 1.061.458 1.665.458s1.207-.153 1.665-.458l11.67-7.78c.916-.611 1.665-2.01 1.665-3.111v-10.998c0-1.1-.749-2.5-1.665-3.111l-11.67-7.78c-.458-.305-1.062-.458-1.665-.458z" fill="#56A4CA"/></svg>