<svg xmlns="http://www.w3.org/2000/svg" viewBox="0 0 30 34" enable-background="new 0 0 30 34"><path d="M30 22.499c0 1.1-.749 2.5-1.665 3.111l-11.67 7.78c-.916.61-2.414.61-3.33 0l-11.67-7.78c-.916-.611-1.665-2.01-1.665-3.111v-10.998c0-1.1.749-2.5 1.665-3.111l11.67-7.78c.916-.61 2.414-.61 3.33 0l11.67 7.78c.916.611 1.665 2.01 1.665 3.111v10.998z" fill="#5D7DBA"/><g><path fill="#fff" d="M14 28h2v6h-2zM16.143 28.5h-2.286c-4.057 0-7.357-3.625-7.357-8.079v-4.421c0-.276.224-.5.5-.5s.5.224.5.5v4.421c0 3.903 2.852 7.079 6.357 7.079h2.286c3.505 0 6.357-3.176 6.357-7.079v-4.421c0-.276.224-.5.5-.5s.5.224.5.5v4.421c0 4.454-3.3 8.079-7.357 8.079zM20 20.943c0 2.231-1.826 4.057-4.057 4.057h-1.887c-2.23 0-4.056-1.826-4.056-4.057v-9.887c0-2.23 1.826-4.056 4.057-4.056h1.887c2.23 0 4.056 1.826 4.056 4.057v9.886z"/><path d="M14 17.5h-4c-.276 0-.5-.224-.5-.5s.224-.5.5-.5h4c.276 0 .5.224.5.5s-.224.5-.5.5zM14 11.5h-4c-.276 0-.5-.224-.5-.5s.224-.5.5-.5h4c.276 0 .5.224.5.5s-.224.5-.5.5zM14 14.5h-4c-.276 0-.5-.224-.5-.5s.224-.5.5-.5h4c.276 0 .5.224.5.5s-.224.5-.5.5z" fill="#5D7DBA"/></g></svg>