<svg baseProfile="tiny" xmlns="http://www.w3.org/2000/svg" viewBox="0 0 72 72"><path fill="#FF4500" d="M72 64c0 4.418-3.582 8-8 8h-56c-4.418 0-8-3.582-8-8v-56c0-4.418 3.582-8 8-8h56c4.418 0 8 3.582 8 8v56z"/><path fill="#fff" d="M25.5 38.625c0 1.45 1.175 2.625 2.625 2.625s2.625-1.175 2.625-2.625-1.175-2.625-2.625-2.625-2.625 1.175-2.625 2.625zm15.75 0c0 1.45 1.175 2.625 2.625 2.625s2.625-1.175 2.625-2.625-1.175-2.625-2.625-2.625-2.625 1.175-2.625 2.625zm.127 5.61c.677-.532 1.657-.417 2.189.259.533.677.417 1.657-.259 2.189-1.883 1.483-4.75 2.442-7.307 2.442-2.557 0-5.424-.959-7.307-2.442-.675-.532-.792-1.512-.259-2.189.532-.676 1.512-.791 2.189-.259 1.083.854 3.229 1.773 5.377 1.773 2.148 0 4.294-.919 5.377-1.773zm15.623-10.86c0-2.899-2.351-5.25-5.25-5.25-1.974 0-3.691 1.09-4.587 2.699-2.698-1.477-5.986-2.429-9.568-2.649l3.133-7.036 5.997 1.732c.538 1.53 1.998 2.629 3.713 2.629 2.175 0 3.938-1.762 3.938-3.938s-1.762-3.938-3.938-3.938c-1.5 0-2.803.838-3.467 2.073l-6.683-1.929c-.747-.215-1.539.151-1.855.863l-4.257 9.558c-3.493.246-6.697 1.191-9.338 2.634-.897-1.609-2.615-2.698-4.589-2.698-2.899 0-5.25 2.351-5.25 5.25 0 2.146 1.288 3.989 3.133 4.803-.332.986-.508 2.015-.508 3.072 0 7.249 8.226 13.125 18.375 13.125s18.375-5.876 18.375-13.125c0-1.057-.176-2.085-.508-3.071 1.846-.814 3.134-2.658 3.134-4.804zm-6.562-13.289c.815 0 1.477.661 1.477 1.477s-.661 1.477-1.477 1.477c-.815 0-1.477-.661-1.477-1.477s.661-1.477 1.477-1.477zm-32.813 13.289c0-1.448 1.177-2.625 2.625-2.625 1.046 0 1.952.615 2.372 1.502-1.371 1.041-2.508 2.241-3.349 3.559-.964-.388-1.648-1.334-1.648-2.436zm18.375 17.883c-8.426 0-15.258-4.481-15.258-10.008s6.832-10.008 15.258-10.008c8.426 0 15.258 4.481 15.258 10.008s-6.832 10.008-15.258 10.008zm16.727-15.448c-.841-1.318-1.978-2.517-3.349-3.558.42-.887 1.327-1.502 2.372-1.502 1.448 0 2.625 1.177 2.625 2.625 0 1.102-.682 2.048-1.648 2.435z"/></svg>