<svg xmlns="http://www.w3.org/2000/svg" viewBox="0 0 30 34" enable-background="new 0 0 30 34"><path d="M30 22.499c0 1.1-.749 2.5-1.665 3.111l-11.67 7.78c-.916.61-2.414.61-3.33 0l-11.67-7.78c-.916-.611-1.665-2.01-1.665-3.111v-10.998c0-1.1.749-2.5 1.665-3.111l11.67-7.78c.916-.61 2.414-.61 3.33 0l11.67 7.78c.916.611 1.665 2.01 1.665 3.111v10.998z" fill="#F38844"/><g><path d="M15.226 13.438c.659-.083 1.269-.481 1.567-1.044.321-.606.268-1.334-.151-2.051-.851-1.46-.432-2.744-.414-2.797.035-.102.008-.217-.068-.29-.077-.072-.187-.089-.28-.041-.119.061-2.88 1.521-2.88 4.019 0 1.129.752 2.062 1.72 2.202l.506.002z" fill="#fff"/><path d="M15 18.5c-.276 0-.5-.224-.5-.5v-6c0-.276.224-.5.5-.5s.5.224.5.5v6c0 .276-.224.5-.5.5z" fill="#F38844"/><path d="M13.095 20.878c0-.357.17-1.105 1.258-1.105 1.428 0 1.87-.663 1.87-1.36 0-.867-.731-1.326-1.513-1.326-.595 0-1.003.238-1.428.748-.255.306-.578.561-1.104.561-.697 0-1.258-.51-1.258-1.207 0-.391.136-.697.493-1.088.782-.85 2.108-1.343 3.485-1.343 2.125 0 4.232 1.088 4.232 3.4 0 1.326-.85 2.312-2.023 2.618v.051c1.377.323 2.312 1.445 2.312 2.788 0 2.635-2.329 3.824-4.539 3.824-1.53 0-2.822-.442-3.74-1.343-.391-.391-.561-.765-.561-1.19 0-.731.595-1.275 1.292-1.275.442 0 .748.204 1.258.714.493.493.986.697 1.615.697.816 0 1.751-.408 1.751-1.53 0-.85-.697-1.513-2.142-1.513-1.087.001-1.258-.747-1.258-1.121z" fill="#fff"/></g></svg>