<svg xmlns="http://www.w3.org/2000/svg" viewBox="0 0 30 34" enable-background="new 0 0 30 34"><g><path fill="#8360A8" d="M30 22.3c0 1.1-.7 2.5-1.7 3.1l-11.7 7.8c-.9.6-2.4.6-3.3 0l-11.6-7.7c-.9-.6-1.7-2-1.7-3.1v-11c0-1.1.7-2.5 1.7-3.1l11.7-7.8c.9-.6 2.4-.6 3.3 0l11.7 7.8c.9.6 1.7 2 1.7 3.1v10.9z"/><g><path fill="#fff" d="M15 27.3c-.7 0-1.3-.1-1.8-.3-.4-.2-.8-.5-1.2-1l-.3-.1-2.4 1.1h-.1c-.2 0-.4-.1-.5-.3-.1-.2-.2-.5-.1-.7l2.5-7v-2.6c0-5.2 2.5-10.1 4.1-10.1s4.1 4.9 4.1 10.1v2.6l2.5 7c.1.2 0 .5-.1.7-.1.2-.3.3-.5.3h-.2l-2.4-1-.6.1c-.3.5-.7.9-1.2 1-.5.1-1.1.2-1.8.2z"/><path fill="#8360A8" d="M15 6.8c1 0 3.6 4.3 3.6 9.6 0 .7 0 1.7-.1 2.7l2.5 7.1c0 .1 0 .3-.1.3l-2.5-1.1-.6.2c-.3.5-.6.8-1 .9-.4.2-1 .2-1.6.2-.6 0-1.2-.1-1.6-.2-.4-.1-.7-.5-1-.9l-.6-.3-2.5 1.1c-.5.1-.5-.1-.5-.2l2.5-7.1v-2.7c-.1-5.3 2.5-9.6 3.5-9.6m0-1c-2.3 0-4.6 6.1-4.6 10.6v2.5l-2.4 6.9c-.1.5 0 .9.2 1.2.2.3.6.5.9.5h.2l.2-.1 2.2-.9c.4.5.8.9 1.3 1.1.5.2 1.2.3 1.9.3s1.4-.1 1.9-.3c.5-.2.9-.5 1.3-1l2.2.9.2.1h.2c.4 0 .7-.2.9-.5.2-.3.3-.8.2-1.1l-2.4-6.9v-2.5c.2-4.7-2.1-10.8-4.4-10.8z"/></g><circle fill="#8360A8" cx="15" cy="15.8" r="1.5"/><path fill="#fff" d="M16.5 34v-4.7c0-.8-.7-1.5-1.5-1.5s-1.5.7-1.5 1.5v4.7h3zM26.3 32.8c-.8 0-1.3-.4-1.6-1.3l-.7-2.4-.7 2.4c-.3.8-.8 1.3-1.6 1.3s-1.3-.4-1.6-1.3l-1.6-5.1c-.1-.2-.1-.4-.1-.5 0-.8.6-1.4 1.4-1.4.4 0 1.1.2 1.4 1.2l.6 2.3.6-2c.3-1 .8-1.5 1.6-1.5s1.3.5 1.6 1.5l.6 2 .6-2.4c.2-.7.7-1.1 1.3-1.1.8 0 1.3.6 1.3 1.3 0 .2 0 .3-.1.5l-1.6 5.1c-.1 1-.7 1.4-1.4 1.4z"/><path fill="#8360A8" d="M28.2 25.1c.4 0 .8.3.8.8 0 .1 0 .2-.1.4l-1.6 5.1c-.3.8-.8.9-1.1.9-.3 0-.8-.1-1.1-.9l-1.1-3.9-1.2 3.9c-.2.8-.7.9-1.1.9s-.8-.1-1.1-.9l-1.6-5.1c0-.2-.1-.3-.1-.4 0-.5.4-.9.9-.9.3 0 .7.1.9.8l1.1 4 1.1-3.7c.3-1 .8-1.1 1.1-1.1s.8.1 1.1 1.1l1.1 3.7 1.1-4c.2-.6.6-.7.9-.7m0-1c-.9 0-1.6.6-1.8 1.5l-.2.6-.1-.3c-.4-1.5-1.4-1.8-2.1-1.8-.7 0-1.7.3-2.1 1.8l-.1.3-.1-.5c-.3-1-.9-1.6-1.9-1.6-1 0-1.9.8-1.9 1.9 0 .2 0 .4.1.7l1.6 5.1c.3 1.1 1.1 1.6 2.1 1.6s1.7-.6 2-1.7l.3-.8.3.8c.3 1.1 1 1.6 2 1.6s1.7-.6 2-1.6l1.6-5.1c.1-.3.1-.5.1-.7 0-1-.8-1.8-1.8-1.8z"/></g></svg>